<svg xmlns="http://www.w3.org/2000/svg" width="560" height="200" viewBox="0 0 560 200" role="img" aria-label="Skybreak: Exploring a native PC port of Skyward Sword."><title>Skybreak</title><desc>Exploring a native PC port of Skyward Sword.. RESEARCH / EARLY DEVELOPMENT.</desc><defs><linearGradient id="bg" x2="1" y2="1"><stop stop-color="#0b211b"/><stop offset="1" stop-color="#081712"/></linearGradient></defs><rect x=".5" y=".5" width="559" height="199" rx="12" fill="url(#bg)" stroke="#5d593b"/><path d="M16 32V16h16M528 16h16v16M16 168v16h16M528 184h16v-16" stroke="#dfc77a" stroke-opacity=".7" fill="none"/><text x="28" y="34" fill="#6ecda9" font-family="Consolas,monospace" font-size="11" letter-spacing="2">01 / THE ZELDA QUEST</text><text x="28" y="75" fill="#f6efdc" font-family="Georgia,serif" font-size="29">Skybreak</text><text x="28" y="105" fill="#b3c2b4" font-family="Segoe UI,Arial,sans-serif" font-size="14">Exploring a native PC port</text><text x="28" y="126" fill="#b3c2b4" font-family="Segoe UI,Arial,sans-serif" font-size="14">of Skyward Sword.</text><path d="M28 145h504" stroke="#dfc77a" stroke-opacity=".18"/><text x="28" y="171" fill="#dfc77a" font-family="Consolas,monospace" font-size="11" letter-spacing=".5">RESEARCH / EARLY DEVELOPMENT</text><path d="M520 172l10-10m-10 0h10v10" fill="none" stroke="#dfc77a" stroke-width="1.5"/><g fill="#dfc77a"><path d="M474 60l17 29h-34zM457 89l17 29h-34zM491 89l17 29h-34z"/></g></svg>